<svg xmlns="http://www.w3.org/2000/svg" width="200" height="200" fill="none" viewBox="0 0 200 200">
<!-- SVG created with Arrow, by QuiverAI (https://quiver.ai) -->
  <path d="m112.7 170.8-7.04 7.28-1.61-6.38 6.21-5.68 6.84-2.89-4.4 7.67z" fill="url(#paint0_linear_1201_1904)" opacity=".4"/>
  <path d="m138.7 139.3-6.8 21.84-3.95-1.16 6.95-22.6 2.07-15.39-3.05-13.94-4.22-7.82 1.76-4.17 6.41 9.03 3.4 11.99 0.13 11.03-2.7 11.19z" fill="url(#paint1_linear_1201_1904)" opacity=".4"/>
  <path d="m164.6 52.21 1.07 6.91 6.41 1.87 2.94-4.9-4.04-3.88h-6.38z" fill="url(#paint2_linear_1201_1904)" opacity=".4"/>
  <path d="m112.9 45.04 4.96-4.03-0.82-3.93-9.14 4.83-3.91 5.21 2.8 0.8 6.11-2.88z" fill="url(#paint3_linear_1201_1904)" opacity=".4"/>
  <path d="m81.96 45.04 4.54-2.63-4.08 5.51-4.08 8.41-3.05 10.79-3.19 9.94-0.82-8.24 2.79-11.08 7.89-12.7z" fill="url(#paint4_linear_1201_1904)" opacity=".4"/>
  <path d="m47.11 136 5.01 1.39 0.46 5.45-7.31-0.63-10.48-3.51-3.05-3.5 2.22-1.16 13.15 1.96z" fill="url(#paint5_linear_1201_1904)" opacity=".4"/>
  <path d="m117.6 143.9-3.79-0.16-4.96 7.43 2.8 2.71 5.95-4.23v-5.75z" fill="#fff" opacity=".4"/>
  <path d="m119.8 18.01c-18.67 12.27-31.55 20.5-40.55 40.41-7.95 17.89-7.49 34.54-1.91 46.7l4.23-1.48c-5.34-10.01-4.23-25.62 3.46-39.93 8.7-16.43 18-22.54 35.43-29.81l-0.66-15.89z" fill="url(#paint6_linear_1201_1904)" stroke="#0B78B6" stroke-miterlimit="10" stroke-width="1.5"/>
  <path d="m146.5 26.32c-19.24 5.75-36.82 8.69-49.44 21.04-13.97 13.78-22.06 28.55-21.91 48.29l3.63 0.36c-0.66-15.96 8.29-31.07 21.12-41.39 11.02-8.94 23.02-11.96 43.96-13.85l2.64-14.45z" fill="url(#paint7_linear_1201_1904)" stroke="#0B78B6" stroke-miterlimit="10" stroke-width="1.5"/>
  <path d="m167.3 44.24c-16.88-2.23-30.53-4.11-45.95 0.8-19.24 6.29-39.25 20.67-45.15 44.15l2.8 1.48c8-19.51 21.9-32.69 42.2-37.74 12.98-3.49 25.54-2.81 44.93 0.28l1.17-8.97z" fill="url(#paint8_linear_1201_1904)" stroke="#0B78B6" stroke-miterlimit="10" stroke-width="1.5"/>
  <path d="m180.9 67.86c-14.42-7.03-22.47-11.45-36.5-11.77l-0.46 4.02c11.23 0.88 20.33 6.04 33 14.03l3.96-6.28z" fill="url(#paint9_linear_1201_1904)" stroke="#0B78B6" stroke-miterlimit="10" stroke-width="1.5"/>
  <path d="m171.9 90.03c-13.56-12.25-24.09-21.85-44.55-22.49-14.24-0.88-24.08-1.12-37.23 10.96l2.32 3.31c9.98-9.03 19.96-9.03 31.62-6.66 18.92 4.03 31.01 12.76 45.53 38.76l2.31-23.88z" fill="url(#paint10_linear_1201_1904)" stroke="#0B78B6" stroke-miterlimit="10" stroke-width="1.5"/>
  <path d="m144.3 95.17c-8.3-13.72-20.24-21.15-35.3-22.03v2.89c13.75 2.31 22.8 10.88 30.21 24.23 9.3 14.69 14.1 22.36 11.46 47.96l1.47-0.8c3.96-21.67 1.79-36.06-7.84-52.25z" fill="url(#paint11_linear_1201_1904)" stroke="#0B78B6" stroke-miterlimit="10" stroke-width="1.5"/>
  <path d="m134.6 102.1c-5.96-13.26-11.54-18-18.05-18.96l0.51 5.22c6.05 1.36 10.61 9.38 12.14 19.57 2.74 15.14-2.94 29.29-9.21 43.93l-1.12 10.79 5.06-0.48c11.89-24.55 19.77-38.94 10.67-60.07z" fill="url(#paint12_linear_1201_1904)" stroke="#0B78B6" stroke-miterlimit="10" stroke-width="1.5"/>
  <path d="m100.9 178.6c15.8-20.77 29-39.63 28.29-64.48-0.36-12.06-4.05-25.8-13.25-29.74l-0.51 3.54c6.7 4.17 8.48 13.34 7.67 24.41-1.9 21.98-14 43.98-29.05 59.85l6.85 6.42z" fill="url(#paint13_linear_1201_1904)" stroke="#0B78B6" stroke-miterlimit="10" stroke-width="1.5"/>
  <path d="m72.15 176.7c18.34-13.75 37.06-26.66 45.73-49.36 4.31-11.4 5.84-24.11 0.15-34.59l-2.74 1.04c3.46 9.17 0.96 19.95-5.31 30.1-10.86 17.81-22.36 30.86-41.33 43.73l3.5 9.08z" fill="url(#paint14_linear_1201_1904)" stroke="#0B78B6" stroke-miterlimit="10" stroke-width="1.5"/>
  <path d="m46.81 165.9c16.37-4.17 32.11-7.75 44.1-15.2l6.7-8.5c-12.24 7.74-20.69 14.59-47.6 18.98l-3.2 4.72z" fill="url(#paint15_linear_1201_1904)" stroke="#0B78B6" stroke-miterlimit="10" stroke-width="1.5"/>
  <path d="m26.14 146.3c16.52 2.88 31.99 4.59 46.97 0.48 18-5.15 36.82-15.23 44.82-36.52l-1.98-2.58c-8.2 16.38-23.76 27.18-41.93 32.32-12.92 3.26-27.01 2.11-43.5-2.23l-4.38 8.53z" fill="url(#paint16_linear_1201_1904)" stroke="#0B78B6" stroke-miterlimit="10" stroke-width="1.5"/>
  <path d="m16.31 123.6c13.4 9.17 25.54 15.46 37.94 16.02l1.77-3.62c-11.11-0.8-22-6.47-34.99-15.99l-4.72 3.59z" fill="url(#paint17_linear_1201_1904)" stroke="#0B78B6" stroke-miterlimit="10" stroke-width="1.5"/>
  <path d="m29.19 105.4c9.99 10.47 20.27 19.72 32.16 22.66 8.75 2.45 17.46 2.53 24.68 0.16l-0.92-2.47c-7.59 1.36-15 0.08-22.9-3.57-9.63-4.51-16.13-7.87-28.13-20.81l-4.89 4.03z" fill="url(#paint18_linear_1201_1904)" stroke="#0B78B6" stroke-miterlimit="10" stroke-width="1.5"/>
  <path d="m31.33 84.92c5.58 11.25 10.72 21.25 16.79 24.2l2.69-2.23c-6.1-3.17-10.67-12.12-15.52-22.92l-3.96 0.95z" fill="url(#paint19_linear_1201_1904)" stroke="#0B78B6" stroke-miterlimit="10" stroke-width="1.5"/>
  <path d="m46.71 51.13c-1.62 13.64-1.93 27.05 1.21 36.78l3.1-0.84c-3.4-9.45-3.1-20.33-1.28-33.14l-3.03-2.8z" fill="url(#paint20_linear_1201_1904)" stroke="#0B78B6" stroke-miterlimit="10" stroke-width="1.5"/>
  <path d="m67.78 34.41c-5.97 13.35-11.06 25.3-9.79 41.42 1.22 13.2 6.16 25.34 18.83 34.13l1.95-2.64c-10.84-8.71-15.69-19.57-16.45-32.09-0.81-11.32 3.41-22.5 9.73-36.14l-4.27-4.68z" fill="url(#paint21_linear_1201_1904)" stroke="#0B78B6" stroke-miterlimit="10" stroke-width="1.5"/>
  <path d="m87.62 20.21c-10.59 15.12-21.53 26.91-20.97 46.17l3.25 0.28c0.15-17.18 8.71-29.18 19.93-43l-2.21-3.45z" fill="url(#paint22_linear_1201_1904)" stroke="#0B78B6" stroke-miterlimit="10" stroke-width="1.5"/>
  <path d="m145.9 29.2c-11.79 3.11-25.08 6.61-33.01 11.01l2.07-2.1c8.1-4.13 18.03-7.43 29.73-11.03l1.21 2.12z" fill="url(#paint23_linear_1201_1904)" stroke="#0B78B6" stroke-miterlimit="10" stroke-width="1.5"/>
  <path d="m100.1 13.19-8.3-5.19-8.3 4.63-0.36 9.31 1.88 2.04 5.28 4.18 9.8-5.74v-9.23z" fill="url(#paint24_linear_1201_1904)" stroke="#0B2049" stroke-miterlimit="10" stroke-width=".7"/>
  <path d="m90.91 8.28 6.14 5.43-13.56-1.08 7.42-4.35z" fill="#061A3D"/>
  <path d="m97.05 13.71-6.76 14.45 9.55-6.14-2.79-8.31z" fill="#004283"/>
  <path d="m131.2 12.95-7.3-5.75-9.43 3.87-0.82 4.91 6.06 11.74 10.48-4.9 1.01-9.87z" fill="url(#paint25_linear_1201_1904)" stroke="#0B2049" stroke-miterlimit="10" stroke-width=".7"/>
  <path d="m123.8 7.44 5.34 5.51-14.72-1.8 9.38-3.71z" fill="#4B545C"/>
  <path d="m129.2 12.95-1.02 11.03-9.38 1.48-2.8-13.15 13.2 0.64z" fill="#00123D"/>
  <path d="m160.3 22.74-8.3-6.13-8.68 4.66-0.81 5.13 8.1 11.24 8.45-4.1 1.24-10.8z" fill="url(#paint26_linear_1201_1904)" stroke="#0B2049" stroke-miterlimit="10" stroke-width=".7"/>
  <path d="m151.9 16.77 6.37 5.97-14.54-1.63 8.17-4.34z" fill="#879596"/>
  <path d="m158.2 22.74-7.76 10.2-5.76-6.54 5.71-3.34 7.81-0.32z" fill="#000824"/>
  <path d="m182.1 43.92-8.9-5.41-8.1 5.41-0.91 4.16 7.51 10.72 10.33-4.99 0.07-9.89z" fill="url(#paint27_linear_1201_1904)" stroke="#0B2049" stroke-miterlimit="10" stroke-width=".7"/>
  <path d="m172.9 38.75 4.9 4.42-10.43 0.75 5.53-5.17z" fill="#4B545C"/>
  <path d="m177.8 43.17-5.69 14.65-5.95-8.74 7.04-5.83 4.6-0.08z" fill="#000E35"/>
  <path d="m194.1 69.46-8.1-5.51-5.28 2.35-3.68 5.52v6.2l7.59 5.91 8.35-4.27 1.12-10.2z" fill="url(#paint28_linear_1201_1904)" stroke="#0B2049" stroke-miterlimit="10" stroke-width=".7"/>
  <path d="m185.9 64.27 6.07 6.35-9.57-0.48 3.5-5.87z" fill="#000E35"/>
  <path d="m186 70.22-2.31 11.75-5.28-7.35 5.28-4.48 2.31 0.08z" fill="#00214D"/>
  <path d="m177.8 94.12-1.07-6.01-3.05-1.88-4.61 1.68-2.31 3.16 1.34 5.26 3.5 1.72 6.2-3.93z" fill="url(#paint29_linear_1201_1904)" stroke="#00123D" stroke-miterlimit="10" stroke-width=".7"/>
  <path d="m173.6 86.63-2.08 6.09-3.7-2.37 3.6-3.28 2.18-0.44z" fill="#00326C"/>
  <path d="m175.4 114.8-4.85-2.67-4.8 3.79-0.1 4.84 4.49 3.83 5.57-3.39-0.31-6.4z" fill="url(#paint30_linear_1201_1904)" stroke="#00123D" stroke-miterlimit="10" stroke-width=".7"/>
  <path d="m156.2 149.6-3.79-2.95-5.73 1.96-0.91 6.5 4.85 3.7 5.58-3.7v-5.51z" fill="url(#paint31_linear_1201_1904)" stroke="#00123D" stroke-miterlimit="10" stroke-width=".7"/>
  <path d="m133.9 163.1-4.64-3.86-5.48 2.9-0.81 5.91 5.17 3.94 5.35-3.18 0.41-5.71z" fill="url(#paint32_linear_1201_1904)" stroke="#00123D" stroke-miterlimit="10" stroke-width=".7"/>
  <path d="m108.7 186.4-0.81-10.64-9.84-5.07-7.41 6.02-0.21 10.45 9.15 5.51 9.12-6.27z" fill="url(#paint33_linear_1201_1904)" stroke="#00123D" stroke-miterlimit="10" stroke-width=".7"/>
  <path d="m98.32 171.3-3.9 12.41-1.28-8.58 5.18-3.83z" fill="#00326C"/>
  <path d="m77.32 184.2-0.3-11.09-8.4-4.58-8.75 4.9-0.36 10.33 9.57 5.6 8.24-5.16z" fill="url(#paint34_linear_1201_1904)" stroke="#00123D" stroke-miterlimit="10" stroke-width=".7"/>
  <path d="m50.1 171.1 0.25-5.08-7.41-9.87-8.56 4.47-0.46 10.04 8.9 4.51 7.28-4.07z" fill="url(#paint35_linear_1201_1904)" stroke="#00123D" stroke-miterlimit="10" stroke-width=".7"/>
  <path d="m42.66 156.5-2.52 4.91-4.09-1.24 6.61-3.67z" fill="#00326C"/>
  <path d="m30.11 149 0.51-6.99-7.51-7.37-8.1 4.06-0.82 9.42 8.75 5.14 7.17-4.26z" fill="url(#paint36_linear_1201_1904)" stroke="#00123D" stroke-miterlimit="10" stroke-width=".7"/>
  <path d="m15.61 128.5 5.96-4.48-0.31-8.91-6.51-4.91-7.46 4.35-1.57 9.23 6.6 4.72h3.29z" fill="url(#paint37_linear_1201_1904)" stroke="#00123D" stroke-miterlimit="10" stroke-width=".7"/>
  <path d="m14.29 111.4 5.72 4.79-6.89 1.8-2.41-3.8 3.58-2.79z" fill="#184164"/>
  <path d="m14.9 138.9 4.55-1.23 1.67 1.87-2.27 3.58-3.74 3-0.21-7.22z" fill="#000E35"/>
  <path d="m73.62 31.71-4.28-3.99-5.73 2.28-1.39 6.6 1.93 2.07 6.37 1.26 2.69-2.61 0.41-5.61z" fill="url(#paint38_linear_1201_1904)" stroke="#0B2049" stroke-miterlimit="10" stroke-width=".7"/>
  <path d="m52.12 47.12-4.2-2.36-5.13 2.68-0.94 6.17 4.03 2.72 5.53-1.12 1.22-6.13-0.51-1.96z" fill="url(#paint39_linear_1201_1904)" stroke="#0B2049" stroke-miterlimit="10" stroke-width=".7"/>
  <path d="m35.44 79.66-3.85-3.87-5.68 1.87-0.96 6.27 4.04 3.5 5.95-1.32 0.5-6.45z" fill="url(#paint40_linear_1201_1904)" stroke="#00123D" stroke-miterlimit="10" stroke-width=".7"/>
  <path d="m32.75 102.8-3.25-3.11-4.85 1.51-2.22 3.99 0.71 3.92 3.99 2.6 4.61-1.52 2.22-3.95-1.21-3.44z" fill="url(#paint41_linear_1201_1904)" stroke="#00123D" stroke-miterlimit="10" stroke-width=".7"/>
  <path d="m52.48 106.5-5.67-0.28-2.26 2.75 0.72 4.91 3.35 2.16 4.37-1.36 0.76-4.75-1.27-3.43z" fill="url(#paint42_linear_1201_1904)" stroke="#00123D" stroke-miterlimit="10" stroke-width=".7"/>
  <path d="m58.15 97.17-5.72 0.24-1.62 2.61 0.41 4.26 2.53 2.61 5.18-1.48 1.56-4.2-2.34-4.04z" fill="url(#paint43_linear_1201_1904)" stroke="#00123D" stroke-miterlimit="10" stroke-width=".7"/>
  <path d="m70.41 95.73-4.9 0.36-1.57 3.29 0.41 3.94 3.99 2.93 4.37-2.45 0.7-3.54-3-4.53z" fill="url(#paint44_linear_1201_1904)" stroke="#00123D" stroke-miterlimit="10" stroke-width=".7"/>
  <path d="m69.34 56.17-5.96 1.37-2.53 3.6 0.3 3.61 4.63 3.59 4.53-1.12 2.24-6.59-3.21-4.46z" fill="url(#paint45_linear_1201_1904)" stroke="#00123D" stroke-miterlimit="10" stroke-width=".7"/>
  <path d="m96.79 49.72-6.35-1.64-2.82 3.29v4.4l2.67 3.35 4.63-0.48 3.29-3.59-1.42-5.33z" fill="url(#paint46_linear_1201_1904)" stroke="#00123D" stroke-miterlimit="10" stroke-width=".7"/>
  <path d="m97.4 57.74-3.59 0.9-1.62 4.43 2.73 2.64 3.29-1.8 0.71-4.2-1.52-1.97z" fill="url(#paint47_linear_1201_1904)" stroke="#00123D" stroke-miterlimit="10" stroke-width=".7"/>
  <path d="m113.7 63.91-6.6-0.2-2.41 3.39 0.91 2.88 5.29 0.64 3.5-3.08-0.69-3.63z" fill="url(#paint48_linear_1201_1904)" stroke="#0B78B6" stroke-miterlimit="10" stroke-width=".7"/>
  <path d="m111.1 68.82-5.46-0.4-1.32 2.74 1.32 3.54 4.6 0.65 1.83-2.21-0.97-4.32z" fill="url(#paint49_linear_1201_1904)" stroke="#00123D" stroke-miterlimit="10" stroke-width=".7"/>
  <path d="m98.82 76.03-3.19-0.4-2.22 2.39v2.79l1.92 1.56 3.19-0.84 1.22-2.71-0.92-2.79z" fill="url(#paint50_linear_1201_1904)" stroke="#00123D" stroke-miterlimit="10" stroke-width=".7"/>
  <path d="m81.45 85.64-2.74-1.11-3.83 2.38-0.66 3.76 2.9 2.45 4.03-1.89 1.47-3.32-1.17-2.27z" fill="url(#paint51_linear_1201_1904)" stroke="#00123D" stroke-miterlimit="10" stroke-width=".7"/>
  <path d="m86.85 115-3.57-0.32-1.57 2.24 0.91 3.52 2.9 1.36 2.1-1.8 0.51-2.92-1.28-2.08z" fill="url(#paint52_linear_1201_1904)" stroke="#00123D" stroke-miterlimit="10" stroke-width=".7"/>
  <path d="m91.99 125.2-3.79-0.16-1.47 2.71 0.89 2.93 2.87-0.56 2.41-2.37-0.91-2.55z" fill="url(#paint53_linear_1201_1904)" stroke="#00123D" stroke-miterlimit="10" stroke-width=".7"/>
  <path d="m103.7 114.8-2.68-0.36-2.8 2.4v3.2l2.49 2.39 3.6-2.03 1.12-2.76-1.73-2.84z" fill="url(#paint54_linear_1201_1904)" stroke="#00123D" stroke-miterlimit="10" stroke-width=".7"/>
  <path d="m120.1 102.7-3.49-0.6-2.52 2.55v3.44l2.52 2.12 4.05-1.48 0.97-3.11-1.53-2.92z" fill="url(#paint55_linear_1201_1904)" stroke="#00123D" stroke-miterlimit="10" stroke-width=".7"/>
  <path d="m132.1 91.07-4.46-1.64-3.6 3.29-0.1 3.61 3.7 2.6 4.9-1.88 1.11-3.21-1.55-2.77z" fill="url(#paint56_linear_1201_1904)" stroke="#00123D" stroke-miterlimit="10" stroke-width=".7"/>
  <path d="m145.8 90.11-2.89-0.68-5.15 3.29-0.51 3.61 2.53 2.28 6.32-1.2 1.22-3.57-1.52-3.73z" fill="url(#paint57_linear_1201_1904)" stroke="#00123D" stroke-miterlimit="10" stroke-width=".7"/>
  <path d="m151.6 79.98-5.15-1.16-2.79 1.99-0.26 4.91 4.53 2.63 4.36-2.32 0.81-3.62-1.5-2.43z" fill="url(#paint58_linear_1201_1904)" stroke="#00123D" stroke-miterlimit="10" stroke-width=".7"/>
  <path d="m145.8 54.57-3.5-2.88-5.86 3.28-0.51 4.66 3.69 4.28 6.53-2.64 0.76-4.86-1.11-1.84z" fill="url(#paint59_linear_1201_1904)" stroke="#00123D" stroke-miterlimit="10" stroke-width=".7"/>
  <path d="m133 128.4-4.64-1.55-3.59 3.6-0.1 4.51 4.46 4.5 6.16-3.62 0.7-5.87-2.99-1.57z" fill="url(#paint60_linear_1201_1904)" stroke="#00123D" stroke-miterlimit="10" stroke-width=".7"/>
  <path d="m102.7 135.2-7.1-1.48-0.71 2.88 0.41 5.25 3.49 1.23 4.8-1.99-0.41-3.94-0.48-1.95z" fill="url(#paint61_linear_1201_1904)" stroke="#00123D" stroke-miterlimit="10" stroke-width=".7"/>
  <path d="m57.29 132.7-4.15-0.4-3.45 2.35-0.46 4.98 2.08 2.43 3.6-1.75 3.08-1.16 0.26-4.5-0.96-1.95z" fill="url(#paint62_linear_1201_1904)" stroke="#00123D" stroke-miterlimit="10" stroke-width=".7"/>
  <defs>
    <linearGradient id="paint0_linear_1201_1904" x1="109.4" x2="111.6" y1="166.1" y2="175.7" gradientUnits="userSpaceOnUse">
      <stop stop-color="#001238" offset="0"/>
      <stop stop-color="#001238" stop-opacity=".01" offset="1"/>
    </linearGradient>
    <linearGradient id="paint1_linear_1201_1904" x1="130.1" x2="136.6" y1="105.1" y2="151" gradientUnits="userSpaceOnUse">
      <stop stop-color="#001238" offset="0"/>
      <stop stop-color="#001238" stop-opacity=".01" offset="1"/>
    </linearGradient>
    <linearGradient id="paint2_linear_1201_1904" x1="169" x2="171.6" y1="50.07" y2="59.4" gradientUnits="userSpaceOnUse">
      <stop stop-color="#001238" offset="0"/>
      <stop stop-color="#001238" stop-opacity=".01" offset="1"/>
    </linearGradient>
    <linearGradient id="paint3_linear_1201_1904" x1="110.3" x2="112.4" y1="37.08" y2="44.72" gradientUnits="userSpaceOnUse">
      <stop stop-color="#001238" offset="0"/>
      <stop stop-color="#001238" stop-opacity=".01" offset="1"/>
    </linearGradient>
    <linearGradient id="paint4_linear_1201_1904" x1="78.8" x2="83.6" y1="42.41" y2="68.98" gradientUnits="userSpaceOnUse">
      <stop stop-color="#001238" offset="0"/>
      <stop stop-color="#001238" stop-opacity=".01" offset="1"/>
    </linearGradient>
    <linearGradient id="paint5_linear_1201_1904" x1="40.94" x2="42.28" y1="132.9" y2="141.8" gradientUnits="userSpaceOnUse">
      <stop stop-color="#001238" offset="0"/>
      <stop stop-color="#001238" stop-opacity=".01" offset="1"/>
    </linearGradient>
    <linearGradient id="paint6_linear_1201_1904" x1="95.74" x2="95.74" y1="19.21" y2="105.1" gradientUnits="userSpaceOnUse">
      <stop stop-color="#00C6FF" offset="0"/>
      <stop stop-color="#B1F1FF" offset=".6146"/>
      <stop stop-color="#00C6FF" offset="1"/>
    </linearGradient>
    <linearGradient id="paint7_linear_1201_1904" x1="110.8" x2="110.8" y1="28.44" y2="96.01" gradientUnits="userSpaceOnUse">
      <stop stop-color="#00C6FF" offset="0"/>
      <stop stop-color="#B1F1FF" offset=".6146"/>
      <stop stop-color="#00C6FF" offset="1"/>
    </linearGradient>
    <linearGradient id="paint8_linear_1201_1904" x1="121.7" x2="121.7" y1="42.33" y2="90.67" gradientUnits="userSpaceOnUse">
      <stop stop-color="#00C6FF" offset="0"/>
      <stop stop-color="#B1F1FF" offset=".6146"/>
      <stop stop-color="#00C6FF" offset="1"/>
    </linearGradient>
    <linearGradient id="paint9_linear_1201_1904" x1="162.4" x2="162.4" y1="56.09" y2="74.14" gradientUnits="userSpaceOnUse">
      <stop stop-color="#00C6FF" offset="0"/>
      <stop stop-color="#B1F1FF" offset=".6146"/>
      <stop stop-color="#00C6FF" offset="1"/>
    </linearGradient>
    <linearGradient id="paint10_linear_1201_1904" x1="126" x2="126" y1="67.09" y2="113.9" gradientUnits="userSpaceOnUse">
      <stop stop-color="#00C6FF" offset="0"/>
      <stop stop-color="#B1F1FF" offset=".6146"/>
      <stop stop-color="#00C6FF" offset="1"/>
    </linearGradient>
    <linearGradient id="paint11_linear_1201_1904" x1="133.9" x2="133.9" y1="82.95" y2="148.6" gradientUnits="userSpaceOnUse">
      <stop stop-color="#00C6FF" offset="0"/>
      <stop stop-color="#B1F1FF" offset=".6146"/>
      <stop stop-color="#00C6FF" offset="1"/>
    </linearGradient>
    <linearGradient id="paint12_linear_1201_1904" x1="123.7" x2="123.7" y1="83.13" y2="162.6" gradientUnits="userSpaceOnUse">
      <stop stop-color="#00C6FF" offset="0"/>
      <stop stop-color="#B1F1FF" offset=".6146"/>
      <stop stop-color="#00C6FF" offset="1"/>
    </linearGradient>
    <linearGradient id="paint13_linear_1201_1904" x1="108.2" x2="108.2" y1="88.27" y2="178.5" gradientUnits="userSpaceOnUse">
      <stop stop-color="#00C6FF" offset="0"/>
      <stop stop-color="#B1F1FF" offset=".6146"/>
      <stop stop-color="#00C6FF" offset="1"/>
    </linearGradient>
    <linearGradient id="paint14_linear_1201_1904" x1="93.29" x2="93.29" y1="92.72" y2="176.7" gradientUnits="userSpaceOnUse">
      <stop stop-color="#00C6FF" offset="0"/>
      <stop stop-color="#B1F1FF" offset=".6146"/>
      <stop stop-color="#00C6FF" offset="1"/>
    </linearGradient>
    <linearGradient id="paint15_linear_1201_1904" x1="72.21" x2="72.21" y1="142.2" y2="165.9" gradientUnits="userSpaceOnUse">
      <stop stop-color="#00C6FF" offset="0"/>
      <stop stop-color="#B1F1FF" offset=".6146"/>
      <stop stop-color="#00C6FF" offset="1"/>
    </linearGradient>
    <linearGradient id="paint16_linear_1201_1904" x1="71.53" x2="71.53" y1="107.6" y2="149.1" gradientUnits="userSpaceOnUse">
      <stop stop-color="#00C6FF" offset="0"/>
      <stop stop-color="#B1F1FF" offset=".6146"/>
      <stop stop-color="#00C6FF" offset="1"/>
    </linearGradient>
    <linearGradient id="paint17_linear_1201_1904" x1="36.17" x2="36.17" y1="120" y2="139.6" gradientUnits="userSpaceOnUse">
      <stop stop-color="#00C6FF" offset="0"/>
      <stop stop-color="#B1F1FF" offset=".6146"/>
      <stop stop-color="#00C6FF" offset="1"/>
    </linearGradient>
    <linearGradient id="paint18_linear_1201_1904" x1="57.56" x2="57.56" y1="101.3" y2="129.2" gradientUnits="userSpaceOnUse">
      <stop stop-color="#00C6FF" offset="0"/>
      <stop stop-color="#B1F1FF" offset=".6146"/>
      <stop stop-color="#00C6FF" offset="1"/>
    </linearGradient>
    <linearGradient id="paint19_linear_1201_1904" x1="41.07" x2="41.07" y1="83.97" y2="109.1" gradientUnits="userSpaceOnUse">
      <stop stop-color="#00C6FF" offset="0"/>
      <stop stop-color="#B1F1FF" offset=".6146"/>
      <stop stop-color="#00C6FF" offset="1"/>
    </linearGradient>
    <linearGradient id="paint20_linear_1201_1904" x1="48.15" x2="48.15" y1="51.13" y2="87.91" gradientUnits="userSpaceOnUse">
      <stop stop-color="#00C6FF" offset="0"/>
      <stop stop-color="#B1F1FF" offset=".6146"/>
      <stop stop-color="#00C6FF" offset="1"/>
    </linearGradient>
    <linearGradient id="paint21_linear_1201_1904" x1="68.06" x2="68.06" y1="34.41" y2="110" gradientUnits="userSpaceOnUse">
      <stop stop-color="#00C6FF" offset="0"/>
      <stop stop-color="#B1F1FF" offset=".6146"/>
      <stop stop-color="#00C6FF" offset="1"/>
    </linearGradient>
    <linearGradient id="paint22_linear_1201_1904" x1="78.24" x2="78.24" y1="20.21" y2="66.66" gradientUnits="userSpaceOnUse">
      <stop stop-color="#00C6FF" offset="0"/>
      <stop stop-color="#B1F1FF" offset=".6146"/>
      <stop stop-color="#00C6FF" offset="1"/>
    </linearGradient>
    <linearGradient id="paint23_linear_1201_1904" x1="129.4" x2="129.4" y1="27.08" y2="40.21" gradientUnits="userSpaceOnUse">
      <stop stop-color="#00C6FF" offset="0"/>
      <stop stop-color="#B1F1FF" offset=".6146"/>
      <stop stop-color="#00C6FF" offset="1"/>
    </linearGradient>
  </defs>
</svg>