<svg xmlns="http://www.w3.org/2000/svg" width="250" height="250" fill="none" viewBox="0 0 250 250">
<!-- SVG created with Arrow, by QuiverAI (https://quiver.ai) -->
  <path d="m144.7 7.33 9.02 4.86 0.3 8.52-7.77 6.91-10.45-4.55-0.65-10.57 9.55-5.17z" fill="url(#paint0_linear_1829_1013)" opacity=".5"/>
  <path d="m65.63 20.57-7.26 5.74-0.39 10.01 7.18 6.43 10.25-2.56-0.3-14.04-9.48-5.58z" fill="url(#paint1_linear_1829_1013)" opacity=".5"/>
  <path d="m190 39.69 6.95 1.63 4.02 7.51-6.16 8.84-8.33-0.76-2.75-9.71 6.27-7.51z" fill="url(#paint2_linear_1829_1013)" opacity=".5"/>
  <path d="m22.71 64.72 9.2 3.16 2.06 11.64-9.19 6.3-9.86-4.81-0.98-11 8.77-5.29z" fill="url(#paint3_linear_1829_1013)" opacity=".5"/>
  <path d="m222.4 80.71 8.55-0.3 5.14 8.7-5.67 9.16-9.33-0.23-5.14-10.01 6.45-7.32z" fill="url(#paint4_linear_1829_1013)" opacity=".5"/>
  <path d="m180.7 64.57 10.6 6.04 0.15 13.1-10.45 9.45-10.9-7.44-1.06-13.65 11.66-7.5z" fill="url(#paint5_linear_1829_1013)" opacity=".5"/>
  <path d="m135.6 71.84 7.35 3.77 0.96 8.45-3.76 5.05-9.19-3.76-1.55-9.44 6.19-4.07z" fill="url(#paint6_linear_1829_1013)" opacity=".5"/>
  <path d="m70.11 67.08 8.8 1.86 1.26 10.81-5.56 6.37-9.73-1.86-2.6-9.15 7.83-8.03z" fill="url(#paint7_linear_1829_1013)" opacity=".5"/>
  <path d="m174.5 126.4 5.08 0.66 6.45 6.59-2.07 8.13-10.15-0.08-5.37-9.6 6.06-5.7z" fill="url(#paint8_linear_1829_1013)" opacity=".5"/>
  <path d="m193.4 128 8.6 4.95 1.11 10.19-5.58 6.22-11.23-2.24-2.14-12.42 9.24-6.7z" fill="url(#paint9_linear_1829_1013)" opacity=".5"/>
  <path d="m177.7 86.12 7 2.79 0.37 4.7-5.29 5.06-7.99-1.56-4.35-6.37 4.58-4.62h5.68z" fill="url(#paint10_linear_1829_1013)" opacity=".5"/>
  <path d="m63.83 103.4 8.18-1.71 9.48 5.89-1.24 12.65-10.9 3.54-9.63-4.2 0.3-10.01 3.81-6.16z" fill="url(#paint11_linear_1829_1013)" opacity=".5"/>
  <path d="m37.71 132 11.2 5.17-0.96 10.32-9.34 6.52-9.86-6.04-0.52-11.28 9.48-4.69z" fill="url(#paint12_linear_1829_1013)" opacity=".5"/>
  <path d="m19.94 169 7.69 0.08 6.34 8.3-2.82 8.28-12.31 1.29-5.49-9.29 6.59-8.66z" fill="url(#paint13_linear_1829_1013)" opacity=".5"/>
  <path d="m68.68 142.1 7.27-0.36 4.02 6.05-2.45 10.4-10.17 1.27-3.68-9.15 5.01-8.21z" fill="url(#paint14_linear_1829_1013)" opacity=".5"/>
  <path d="m77.75 174 7.99-1.26 3.68 8.45-1.55 10.7-10.9-2.56-4.73-7.51 5.51-7.82z" fill="url(#paint15_linear_1829_1013)" opacity=".5"/>
  <path d="m82.96 200 6.46-2.24 6.06 5.74-1.55 9.44-11.67 1.27-4.02-9.45 4.72-4.76z" fill="url(#paint16_linear_1829_1013)" opacity=".5"/>
  <path d="m138.8 172.8 7.34 1.86 3.37 7.51-4.32 8.75-9.19-1.56-5.05-7.19 4.32-8.11 3.53-1.26z" fill="url(#paint17_linear_1829_1013)" opacity=".5"/>
  <path d="m104.3 165.6 7.34 1.55 2.82 7.5-5.34 4.62-7.03-1.55-2.82-7.51 5.03-4.61z" fill="url(#paint18_linear_1829_1013)" opacity=".5"/>
  <path d="m200 169.1 9.73 4.61 1.23 7.11-6.79 7.11-8.88-3.31-2.52-8.45 7.23-7.07z" fill="url(#paint19_linear_1829_1013)" opacity=".5"/>
  <path d="m181.2 208.8 9.85 2.17 3.83 9.15-6.16 8.45-11.38-2.48-1.77-11 5.63-6.29z" fill="url(#paint20_linear_1829_1013)" opacity=".5"/>
  <path d="m147.2 197.2 10.9 5.29 1.55 10.7-9.19 7.51-10.17-4.22-2.82-12.99 9.73-6.29z" fill="url(#paint21_linear_1829_1013)" opacity=".5"/>
  <path d="m90.4 222.8 6.45 0.3 7.34 6.04-0.23 8.14-6.76 6.37-10.25-3.16-2.22-10.01 5.67-7.68z" fill="url(#paint22_linear_1829_1013)" opacity=".5"/>
  <path d="m163.7 137.4 12.61 3.46 0.58 14.27-10.82 8.14-10.33-7.51 0.08-11.59 7.88-6.77z" fill="url(#paint23_linear_1829_1013)" opacity=".5"/>
  <path d="m105.8 46.44 11.97 6.29 0.65 13.33-11.15 4.55-9.48-5.56-1.23-11.94 9.24-6.67z" fill="url(#paint24_linear_1829_1013)" opacity=".5"/>
  <path d="m99.92 147.3 13.37 5.56-0.37 12.71-8.88 7.11-11.97-6.37-0.66-12.26 8.51-6.75z" fill="url(#paint25_linear_1829_1013)" opacity=".5"/>
  <path d="m118.1 161.5 5.42 5.74 1.91 4.48-2.97 1.56-4.73-1.56-2.59-6.74 2.96-3.48z" fill="url(#paint26_linear_1829_1013)" opacity=".5"/>
  <path d="m144.7 14.77 17.5 36.43 22.58-3.09 1.14 2.71-22.42 3.33 6.66 17.92-15.32-0.66-7.03-47-3.11-9.64zm2.06 10.69 6.19 44.55 14.22 1.03-7.19-16.58-13.22-29z" opacity=".5" stroke="#0090E3" stroke-miterlimit="10" stroke-width="2"/>
  <path d="m142.9 22.21-26.96 30.45 1.63 8.05 69.11-11.8 0.98 2.14-69.03 12.91 16.44 9.37-1.84 4.4 35.2-3.01 0.64 2.48-34.3 4.43 2.45 4.97-18.03 9.15 2.23 4.62 26.43-13.77 8.18 5.1 12.82-4.62 1.28 2.56-11.97 5.48 7.27 13.85 50.8-19.25 0.81 2.4-49.55 19.55 11.15 12.99 6.96 8.13-1.98 2.48-8.18-10.01-10.17 1.86-3.1-11-35.88 6.04-1.55 3.18 36.19 6.89-3.68 11.65 1.84 3.15-30.43 8.14-2.82 11.95-3.11-1.86 3.11-9.15-19.05 1.55-1.55-3.92 21.83-3.54-3.11-17.97-2.82-0.95-12.31 17.33-3.11-1.27 11.97-17.66-26.42 5.46-12.32 9.45 1.23 3.17 12.69-7.51 7.06 9.45-2.52 1.55-7.76-9.44-18.48 6.75-0.3-3.16 15.86-6.37-15.56-0.66-2.82 3.54-2.23-2.25 2.5-3.54-13.62 2.25 0.66-2.56 14.54-2.25 5.67-12.34 3.38-0.95 9.85 12.34 26.73-6.37-33.78-10.09 0.58-5.04 31.72 6.91-30.07-17.34-7.49-1.86-5.37-14.56 1.92-1.55 6.84 12.34 11.97-14.87-21.83-40.72 2.82-2.56 22.78 15.83-1.23 2.17-20.07-15.14 20.07 29.95 9.85-5.29 1.55 1.86-9.23 6.82 17.79 24.44 2.52-1.26-17.02-21.17 14.2-7.51 15.78 10.01 2.52-2.5-15.48-12.71 1.27-4.23 21.83-2.56 4.4-33.4h-1.77zm-10.83 56.3-9.85 20.23 2.52 2.57 10.83-15.19-3.5-7.61zm5.3 9.37-11.15 15.48 3.1 2.87 21.24-15.49-13.19-2.86zm15.7 5.36-23.09 15.48 2.22 2.56 25.28-15.15-4.41-2.89zm6.61 4.88-26.42 15.98 1.23 2.56 27.68-9.44-2.49-9.1zm3.68 12.61-27.67 8.45 0.65 2.56 30.42-1.55-3.4-9.46zm3.68 12.99-28.84 0.66 0.37 1.86 26.43 3.92 2.04-6.44z" opacity=".5" stroke="#0090E3" stroke-miterlimit="10" stroke-width="2"/>
  <path d="m67.35 37.2 2.52-3.54 27.33 44.07-17.96 21.74-47.86-22.35 0.58-1.86 44.82 1.26-9.43-39.32zm1.26 4.55 1.26 32.82 8.18 20.48 15.76-17.98-25.2-35.32z" opacity=".5" stroke="#0090E3" stroke-miterlimit="10" stroke-width="2"/>
  <path d="m28.16 79.14 1.98-1.56 23.45 39.49-7.57 18.74 2.23 1.55 12.9-17.09 2.23-1.26 1.26 1.26-13.92 20.23 16.09 2.56 0.3 2.56-18.48-3.91-19.77 29.95-1.85-1.25 19.16-30.29 1.26-2.56-19.27-58.42zm2.6 3.17 19.42 47 9.85-12.99-29.27-34.01z" opacity=".5" stroke="#0090E3" stroke-miterlimit="10" stroke-width="2"/>
  <path d="m32.03 176.4 38.83-2.17 3.1-0.95 2.23 1.26 3.1 0.58 21.83-3.92 0.95 1.93-14.84 24.09 4.03 2.79-0.66 2.56-2.15-1.26-3.11-3.16 2.23-6.04 11.15-17.98-20.06 2.87-5.33 1.26-41.3-0.58v-1.28z" opacity=".5" stroke="#0090E3" stroke-miterlimit="10" stroke-width="2"/>
  <path d="m70.46 146.6 2.82-0.95 14.22 50.91 6.06 26.25 2.52-0.3 13.62-49.46 2.52-0.65 31.7 28.56 2.24-0.95-23.09-68.81 2.22-2.17 29.81 17.57-0.37 2.25-11.97 25.69 1.55 2.48 34.32 35.1 4.32-1.86-2.23-31.34 0.65-2.87-0.3-2.56-0.95-22.4 6.95-8.14-1.55-2.86-7.86 8.13-0.3 2.56 2.45 21.74-0.65 3.61-27.04 1.63-5.68-1.56 10.52-26.01-1.55-3.17-29.13-19.55-0.65-3.17 57.98 9.45 1.26-1.57-7.49-8.45 1.25-22.43 1.26-3.17 6.76 21.09-0.58 3.92 4.32 6.37 2.23-1.26-3.68-8.14-1.55-4.62-3.7-18.27-1.55-3.16-1.85-6.44-3.11 0.3-0.95 4.23 2.82 5.66-2.82 2.25-0.96 19.54 0.96 3.54-5.67 0.88-7.47 1.93-4.94-11-3.1-14.87-3.37-2.86-28.54 22.89-2.52-0.94-10.44-52.97-3.76-0.95 1.84 2.49 12.31 49.47-36.53-19-2.52 2.86 35.59 19.54-35.59-10.39-2.23 8.83 10.45 15.48-18.48 2.17-0.8-17.65-2.53-0.3 2.23 18.27-2.23 2.87-1.26 2.17-0.65 2.79 1.91 1.86 2.53-0.11zm3.18 3.54 3.1-0.96 8.18 23.72-4.32 0.3-6.96-23.06z" opacity=".5" stroke="#0090E3" stroke-miterlimit="10" stroke-width="2"/>
  <path d="m191.8 129 2.23 0.58 5.9 38.86-2.52 3.93-25.21-15.2 0.65-2.56 13.92 8.81-1.91-15.23 1.26-2.56 0.88-3.54 4.8-13.09z" opacity=".5" stroke="#0090E3" stroke-miterlimit="10" stroke-width="2"/>
  <path d="m193 128.7 25.21-34.67-2.16-5.46-24.88-6.37-0.96 2.17 24.25 4.55 0.96 2.16-27.67 27.21 2.82 5.74 2.43 4.67z" opacity=".5" stroke="#0090E3" stroke-miterlimit="10" stroke-width="2"/>
  <path d="m186 50.74 3.7-0.58-0.95 6.05-17.03 17.04-1.91-1.86 16.19-20.65z" opacity=".5" stroke="#0090E3" stroke-miterlimit="10" stroke-width="2"/>
  <path d="m101.1 227.9 37.7-16.69-0.66-3.16-1.55 1.86-34.54 15.51-0.95 2.48z" opacity=".5" stroke="#0090E3" stroke-miterlimit="10" stroke-width="2"/>
  <path d="m159.1 209.9 18.48 4.62 0.95-2.55-18.18-4.63-1.25 2.56z" opacity=".5" stroke="#0090E3" stroke-miterlimit="10" stroke-width="2"/>
  <path d="m100.5 226.4 30.43-36.13 1.25-1.86-1.85-1.86-20.06-12.99-1.55 1.55 19.05 13.3-34.25 34.43 1.26 1.55 5.72 2.01z" opacity=".5" stroke="#0090E3" stroke-miterlimit="10" stroke-width="2"/>
  <path d="m144.9 201.6 35.51 10.01-56.47-83.5-1.86-0.95-1.55 0.66 24.37 73.78z" opacity=".5" stroke="#0090E3" stroke-miterlimit="10" stroke-width="2"/>
  <path d="m94.11 222.5 19.05-58.5-2.23-1.26-19.67 58.81 2.85 0.95z" opacity=".5" stroke="#0090E3" stroke-miterlimit="10" stroke-width="2"/>
  <path d="m31.68 174.2 40.63-22.99-0.65-2.17-42.2 22.65 2.22 2.51z" opacity=".5" stroke="#0090E3" stroke-miterlimit="10" stroke-width="2"/>
  <circle cx="121.8" cy="124.7" r="30.68" fill="url(#paint27_radial_1829_1013)"/>
  <defs>
    <linearGradient id="paint0_linear_1829_1013" x1="144.5" x2="144.5" y1="7" y2="27.92" gradientUnits="userSpaceOnUse">
      <stop stop-color="#0B103B" offset="0"/>
      <stop stop-color="#001A4B" offset=".276"/>
      <stop stop-color="#000F36" offset=".5417"/>
      <stop stop-color="#00062A" offset="1"/>
    </linearGradient>
    <linearGradient id="paint1_linear_1829_1013" x1="66.55" x2="66.55" y1="20.57" y2="42.75" gradientUnits="userSpaceOnUse">
      <stop stop-color="#0B103B" offset="0"/>
      <stop stop-color="#001A4B" offset=".276"/>
      <stop stop-color="#000F36" offset=".5417"/>
      <stop stop-color="#00062A" offset="1"/>
    </linearGradient>
    <linearGradient id="paint2_linear_1829_1013" x1="192.3" x2="192.3" y1="39.69" y2="57.71" gradientUnits="userSpaceOnUse">
      <stop stop-color="#0B103B" offset="0"/>
      <stop stop-color="#001A4B" offset=".276"/>
      <stop stop-color="#000F36" offset=".5417"/>
      <stop stop-color="#00062A" offset="1"/>
    </linearGradient>
    <linearGradient id="paint3_linear_1829_1013" x1="23.96" x2="23.96" y1="64.72" y2="85.82" gradientUnits="userSpaceOnUse">
      <stop stop-color="#0B103B" offset="0"/>
      <stop stop-color="#001A4B" offset=".276"/>
      <stop stop-color="#000F36" offset=".5417"/>
      <stop stop-color="#00062A" offset="1"/>
    </linearGradient>
    <linearGradient id="paint4_linear_1829_1013" x1="226" x2="226" y1="80.36" y2="98.29" gradientUnits="userSpaceOnUse">
      <stop stop-color="#0B103B" offset="0"/>
      <stop stop-color="#001A4B" offset=".276"/>
      <stop stop-color="#000F36" offset=".5417"/>
      <stop stop-color="#00062A" offset="1"/>
    </linearGradient>
    <linearGradient id="paint5_linear_1829_1013" x1="180.2" x2="180.2" y1="64.57" y2="93.16" gradientUnits="userSpaceOnUse">
      <stop stop-color="#0B103B" offset="0"/>
      <stop stop-color="#001A4B" offset=".276"/>
      <stop stop-color="#000F36" offset=".5417"/>
      <stop stop-color="#00062A" offset="1"/>
    </linearGradient>
    <linearGradient id="paint6_linear_1829_1013" x1="136.7" x2="136.7" y1="71.84" y2="89.11" gradientUnits="userSpaceOnUse">
      <stop stop-color="#0B103B" offset="0"/>
      <stop stop-color="#001A4B" offset=".276"/>
      <stop stop-color="#000F36" offset=".5417"/>
      <stop stop-color="#00062A" offset="1"/>
    </linearGradient>
    <linearGradient id="paint7_linear_1829_1013" x1="71.23" x2="71.23" y1="67.08" y2="86.12" gradientUnits="userSpaceOnUse">
      <stop stop-color="#0B103B" offset="0"/>
      <stop stop-color="#001A4B" offset=".276"/>
      <stop stop-color="#000F36" offset=".5417"/>
      <stop stop-color="#00062A" offset="1"/>
    </linearGradient>
    <linearGradient id="paint8_linear_1829_1013" x1="177.2" x2="177.2" y1="126.4" y2="141.8" gradientUnits="userSpaceOnUse">
      <stop stop-color="#0B103B" offset="0"/>
      <stop stop-color="#001A4B" offset=".276"/>
      <stop stop-color="#000F36" offset=".5417"/>
      <stop stop-color="#00062A" offset="1"/>
    </linearGradient>
    <linearGradient id="paint9_linear_1829_1013" x1="193.7" x2="193.7" y1="128" y2="149.3" gradientUnits="userSpaceOnUse">
      <stop stop-color="#0B103B" offset="0"/>
      <stop stop-color="#001A4B" offset=".276"/>
      <stop stop-color="#000F36" offset=".5417"/>
      <stop stop-color="#00062A" offset="1"/>
    </linearGradient>
    <linearGradient id="paint10_linear_1829_1013" x1="176.3" x2="176.3" y1="86.12" y2="98.82" gradientUnits="userSpaceOnUse">
      <stop stop-color="#0B103B" offset="0"/>
      <stop stop-color="#001A4B" offset=".276"/>
      <stop stop-color="#000F36" offset=".5417"/>
      <stop stop-color="#00062A" offset="1"/>
    </linearGradient>
    <linearGradient id="paint11_linear_1829_1013" x1="70.6" x2="70.6" y1="101.7" y2="123.8" gradientUnits="userSpaceOnUse">
      <stop stop-color="#0B103B" offset="0"/>
      <stop stop-color="#001A4B" offset=".276"/>
      <stop stop-color="#000F36" offset=".5417"/>
      <stop stop-color="#00062A" offset="1"/>
    </linearGradient>
    <linearGradient id="paint12_linear_1829_1013" x1="38.59" x2="38.59" y1="132" y2="154.1" gradientUnits="userSpaceOnUse">
      <stop stop-color="#0B103B" offset="0"/>
      <stop stop-color="#001A4B" offset=".276"/>
      <stop stop-color="#000F36" offset=".5417"/>
      <stop stop-color="#00062A" offset="1"/>
    </linearGradient>
    <linearGradient id="paint13_linear_1829_1013" x1="23.66" x2="23.66" y1="169" y2="187" gradientUnits="userSpaceOnUse">
      <stop stop-color="#0B103B" offset="0"/>
      <stop stop-color="#001A4B" offset=".276"/>
      <stop stop-color="#000F36" offset=".5417"/>
      <stop stop-color="#00062A" offset="1"/>
    </linearGradient>
    <linearGradient id="paint14_linear_1829_1013" x1="71.82" x2="71.82" y1="141.7" y2="159.4" gradientUnits="userSpaceOnUse">
      <stop stop-color="#0B103B" offset="0"/>
      <stop stop-color="#001A4B" offset=".276"/>
      <stop stop-color="#000F36" offset=".5417"/>
      <stop stop-color="#00062A" offset="1"/>
    </linearGradient>
    <linearGradient id="paint15_linear_1829_1013" x1="80.83" x2="80.83" y1="172.8" y2="191.9" gradientUnits="userSpaceOnUse">
      <stop stop-color="#0B103B" offset="0"/>
      <stop stop-color="#001A4B" offset=".276"/>
      <stop stop-color="#000F36" offset=".5417"/>
      <stop stop-color="#00062A" offset="1"/>
    </linearGradient>
    <linearGradient id="paint16_linear_1829_1013" x1="86.86" x2="86.86" y1="197.8" y2="214.2" gradientUnits="userSpaceOnUse">
      <stop stop-color="#0B103B" offset="0"/>
      <stop stop-color="#001A4B" offset=".276"/>
      <stop stop-color="#000F36" offset=".5417"/>
      <stop stop-color="#00062A" offset="1"/>
    </linearGradient>
    <linearGradient id="paint17_linear_1829_1013" x1="139.8" x2="139.8" y1="172.8" y2="190.9" gradientUnits="userSpaceOnUse">
      <stop stop-color="#0B103B" offset="0"/>
      <stop stop-color="#001A4B" offset=".276"/>
      <stop stop-color="#000F36" offset=".5417"/>
      <stop stop-color="#00062A" offset="1"/>
    </linearGradient>
    <linearGradient id="paint18_linear_1829_1013" x1="106.9" x2="106.9" y1="165.6" y2="179.2" gradientUnits="userSpaceOnUse">
      <stop stop-color="#0B103B" offset="0"/>
      <stop stop-color="#001A4B" offset=".276"/>
      <stop stop-color="#000F36" offset=".5417"/>
      <stop stop-color="#00062A" offset="1"/>
    </linearGradient>
    <linearGradient id="paint19_linear_1829_1013" x1="201.3" x2="201.3" y1="169.1" y2="187.9" gradientUnits="userSpaceOnUse">
      <stop stop-color="#0B103B" offset="0"/>
      <stop stop-color="#001A4B" offset=".276"/>
      <stop stop-color="#000F36" offset=".5417"/>
      <stop stop-color="#00062A" offset="1"/>
    </linearGradient>
    <linearGradient id="paint20_linear_1829_1013" x1="185.3" x2="185.3" y1="208.8" y2="228.6" gradientUnits="userSpaceOnUse">
      <stop stop-color="#0B103B" offset="0"/>
      <stop stop-color="#001A4B" offset=".276"/>
      <stop stop-color="#000F36" offset=".5417"/>
      <stop stop-color="#00062A" offset="1"/>
    </linearGradient>
    <linearGradient id="paint21_linear_1829_1013" x1="148.6" x2="148.6" y1="197.2" y2="220.7" gradientUnits="userSpaceOnUse">
      <stop stop-color="#0B103B" offset="0"/>
      <stop stop-color="#001A4B" offset=".276"/>
      <stop stop-color="#000F36" offset=".5417"/>
      <stop stop-color="#00062A" offset="1"/>
    </linearGradient>
    <linearGradient id="paint22_linear_1829_1013" x1="94.44" x2="94.44" y1="222.8" y2="243.7" gradientUnits="userSpaceOnUse">
      <stop stop-color="#0B103B" offset="0"/>
      <stop stop-color="#001A4B" offset=".276"/>
      <stop stop-color="#000F36" offset=".5417"/>
      <stop stop-color="#00062A" offset="1"/>
    </linearGradient>
    <linearGradient id="paint23_linear_1829_1013" x1="166.4" x2="166.4" y1="137.4" y2="163.3" gradientUnits="userSpaceOnUse">
      <stop stop-color="#0B103B" offset="0"/>
      <stop stop-color="#001A4B" offset=".276"/>
      <stop stop-color="#000F36" offset=".5417"/>
      <stop stop-color="#00062A" offset="1"/>
    </linearGradient>
    <linearGradient id="paint24_linear_1829_1013" x1="107.2" x2="107.2" y1="46.44" y2="70.61" gradientUnits="userSpaceOnUse">
      <stop stop-color="#0B103B" offset="0"/>
      <stop stop-color="#001A4B" offset=".276"/>
      <stop stop-color="#000F36" offset=".5417"/>
      <stop stop-color="#00062A" offset="1"/>
    </linearGradient>
    <linearGradient id="paint25_linear_1829_1013" x1="102.4" x2="102.4" y1="147.3" y2="172.7" gradientUnits="userSpaceOnUse">
      <stop stop-color="#0B103B" offset="0"/>
      <stop stop-color="#001A4B" offset=".276"/>
      <stop stop-color="#000F36" offset=".5417"/>
      <stop stop-color="#00062A" offset="1"/>
    </linearGradient>
    <linearGradient id="paint26_linear_1829_1013" x1="120.4" x2="120.4" y1="161.5" y2="173.3" gradientUnits="userSpaceOnUse">
      <stop stop-color="#0B103B" offset="0"/>
      <stop stop-color="#001A4B" offset=".276"/>
      <stop stop-color="#000F36" offset=".5417"/>
      <stop stop-color="#00062A" offset="1"/>
    </linearGradient>
    <radialGradient id="paint27_radial_1829_1013" cx="0" cy="0" r="1" gradientTransform="translate(121.8 124.7) rotate(90) scale(30.68)" gradientUnits="userSpaceOnUse">
      <stop stop-color="#FEFFFF" offset="0"/>
      <stop stop-color="#FEFFFF" stop-opacity=".12" offset="1"/>
    </radialGradient>
  </defs>
</svg>